<svg width="56" height="56" viewBox="0 0 56 56" fill="none" xmlns="http://www.w3.org/2000/svg">
<rect width="56" height="56" rx="28" fill="#1E1E1E" fill-opacity="0.02"/>
<path d="M29.5 22V18" stroke="#1E1E1E" stroke-width="1.5" stroke-linecap="round" stroke-linejoin="round"/>
<path d="M28 23.5C28 23.0341 28 22.8011 28.0761 22.6173C28.1776 22.3723 28.3723 22.1776 28.6173 22.0761C28.8011 22 29.0341 22 29.5 22C29.9659 22 30.1989 22 30.3827 22.0761C30.6277 22.1776 30.8224 22.3723 30.9239 22.6173C31 22.8011 31 23.0341 31 23.5V25.5C31 25.9659 31 26.1989 30.9239 26.3827C30.8224 26.6277 30.6277 26.8224 30.3827 26.9239C30.1989 27 29.9659 27 29.5 27C29.0341 27 28.8011 27 28.6173 26.9239C28.3723 26.8224 28.1776 26.6277 28.0761 26.3827C28 26.1989 28 25.9659 28 25.5V23.5Z" stroke="#1E1E1E" stroke-width="1.5"/>
<path d="M29.5 38C35.5 38 37 33.49 37 28C37 22.51 35.5 18 29.5 18C23.4999 18 22 22.51 22 28C22 33.49 23.4999 38 29.5 38Z" stroke="#1E1E1E" stroke-width="1.5"/>
<path d="M21 18C19.9453 19.1316 19.2354 20.5011 19 22" stroke="#1E1E1E" stroke-width="1.5" stroke-linecap="round"/>
</svg>
