<svg width="48" height="48" viewBox="0 0 48 48" fill="none" xmlns="http://www.w3.org/2000/svg">
<rect width="48" height="48" rx="24" fill="#12A19D"/>
<path d="M26.5 21C26.5 22.3807 25.3807 23.5 24 23.5C22.6193 23.5 21.5 22.3807 21.5 21C21.5 19.6193 22.6193 18.5 24 18.5C25.3807 18.5 26.5 19.6193 26.5 21Z" stroke="white" stroke-width="1.5"/>
<path d="M25.2574 29.4936C24.9201 29.8184 24.4693 30 24.0002 30C23.531 30 23.0802 29.8184 22.7429 29.4936C19.6543 26.5008 15.5152 23.1575 17.5337 18.3037C18.6251 15.6793 21.2449 14 24.0002 14C26.7554 14 29.3752 15.6793 30.4666 18.3037C32.4826 23.1514 28.3536 26.5111 25.2574 29.4936Z" stroke="white" stroke-width="1.5"/>
<path d="M30 32C30 33.1046 27.3137 34 24 34C20.6863 34 18 33.1046 18 32" stroke="white" stroke-width="1.5" stroke-linecap="round"/>
</svg>
