<svg width="48" height="49" viewBox="0 0 48 49" fill="none" xmlns="http://www.w3.org/2000/svg">
<rect y="0.5" width="48" height="48" rx="24" fill="black" fill-opacity="0.02"/>
<path d="M26.5 21.5C26.5 22.8807 25.3807 24 24 24C22.6193 24 21.5 22.8807 21.5 21.5C21.5 20.1193 22.6193 19 24 19C25.3807 19 26.5 20.1193 26.5 21.5Z" stroke="#1E1E1E" stroke-opacity="0.5" stroke-width="1.5"/>
<path d="M25.2574 29.9936C24.9201 30.3184 24.4693 30.5 24.0002 30.5C23.531 30.5 23.0802 30.3184 22.7429 29.9936C19.6543 27.0008 15.5152 23.6575 17.5337 18.8037C18.6251 16.1793 21.2449 14.5 24.0002 14.5C26.7554 14.5 29.3752 16.1793 30.4666 18.8037C32.4826 23.6514 28.3536 27.0111 25.2574 29.9936Z" stroke="#1E1E1E" stroke-opacity="0.5" stroke-width="1.5"/>
<path d="M30 32.5C30 33.6046 27.3137 34.5 24 34.5C20.6863 34.5 18 33.6046 18 32.5" stroke="#1E1E1E" stroke-opacity="0.5" stroke-width="1.5" stroke-linecap="round"/>
</svg>
